<svg xmlns="http://www.w3.org/2000/svg" width="1200" height="700" viewBox="0 0 1200 700" role="img" aria-label="GitHub profile statistics for s-rohitks">
  <defs>
    <linearGradient id="bg" x1="0" y1="0" x2="1" y2="1">
      <stop offset="0%" stop-color="#f6f8fa"/>
      <stop offset="100%" stop-color="#eaeef2"/>
    </linearGradient>
    <linearGradient id="accent" x1="0" y1="0" x2="1" y2="0">
      <stop offset="0%" stop-color="#0969da"/>
      <stop offset="100%" stop-color="#1a7f37"/>
    </linearGradient>
  </defs>

  <rect width="1200" height="700" rx="18" fill="url(#bg)"/>
  <rect x="10" y="10" width="1180" height="680" rx="16" fill="#ffffff" stroke="#d0d7de" stroke-width="1"/>

  
  <!-- Profile Card -->
  <rect x="32" y="32" width="220" height="280" rx="12" fill="#ffffff" stroke="#d0d7de" stroke-width="1"/>

  <text x="142.0" y="142" font-family="Segoe UI, Arial, sans-serif" font-size="16" font-weight="700" fill="#1f2328" text-anchor="middle">s-rohitks</text>
  <text x="142.0" y="167" font-family="Segoe UI, Arial, sans-serif" font-size="11" fill="#59636e" text-anchor="middle">Rohit Singh</text>
  <g transform="translate(41.0,185.0) scale(0.7778)" color="#59636e"><circle cx="6.2" cy="5.2" r="2.4" fill="none" stroke="currentColor" stroke-width="1.2"/><path d="M1.8 14c.4-2.6 2.2-4.2 4.4-4.2s4 1.6 4.4 4.2" fill="none" stroke="currentColor" stroke-width="1.2"/><circle cx="12.2" cy="6" r="2" fill="none" stroke="currentColor" stroke-width="1.1" opacity="0.7"/><path d="M10.6 9.3c1.7.2 3 1.6 3.4 3.9" fill="none" stroke="currentColor" stroke-width="1.1" opacity="0.7"/></g>
  <text x="64" y="197" font-family="Segoe UI, Arial, sans-serif" font-size="11" fill="#59636e">India</text>
  <g transform="translate(41.0,215.0) scale(0.7778)" color="#59636e"><circle cx="9" cy="9" r="2.4" fill="none" stroke="currentColor" stroke-width="1.3"/><path d="M1.5 9h4.1M12.4 9h4.1" fill="none" stroke="currentColor" stroke-width="1.3"/></g>
  <text x="64" y="227" font-family="Segoe UI, Arial, sans-serif" font-size="11" fill="#59636e">Joined Jan 7, 2021</text>
  <text x="46" y="257" font-family="Segoe UI, Arial, sans-serif" font-size="10" fill="#59636e">AI/ML Engineer passionate</text>
  <text x="46" y="272" font-family="Segoe UI, Arial, sans-serif" font-size="10" fill="#59636e">about building intelligent</text>
  <text x="46" y="287" font-family="Segoe UI, Arial, sans-serif" font-size="10" fill="#59636e">systems and developer tools.</text>


  
  <text x="920" y="12" font-family="Segoe UI, Arial, sans-serif" font-size="13" font-weight="600" fill="#1f2328">Contributions</text>

  
  <!-- Contributions calendar background -->
  <rect x="900" y="4" width="274" height="130" rx="10" fill="#f6f8fa" stroke="#d0d7de" stroke-width="1"/>

  <!-- Month labels -->
  <text x="920" y="24" font-family="Segoe UI, Arial, sans-serif" font-size="10" fill="#59636e">Mar</text>
  <text x="972" y="24" font-family="Segoe UI, Arial, sans-serif" font-size="10" fill="#59636e">Apr</text>
  <text x="1024" y="24" font-family="Segoe UI, Arial, sans-serif" font-size="10" fill="#59636e">May</text>
  <text x="1076" y="24" font-family="Segoe UI, Arial, sans-serif" font-size="10" fill="#59636e">Jun</text>
  <text x="1128" y="24" font-family="Segoe UI, Arial, sans-serif" font-size="10" fill="#59636e">Jul</text>
  <text x="1180" y="24" font-family="Segoe UI, Arial, sans-serif" font-size="10" fill="#59636e">Aug</text>

  <!-- Weekday labels -->
  <text x="904" y="45" font-family="Segoe UI, Arial, sans-serif" font-size="9.5" fill="#59636e">M</text>
  <text x="904" y="71" font-family="Segoe UI, Arial, sans-serif" font-size="9.5" fill="#59636e">W</text>
  <text x="904" y="97" font-family="Segoe UI, Arial, sans-serif" font-size="9.5" fill="#59636e">F</text>

  <rect x="920" y="32" width="11" height="11" rx="3.5" fill="#40c463" stroke="none"/><rect x="920" y="45" width="11" height="11" rx="3.5" fill="#9be9a8" stroke="none"/><rect x="920" y="58" width="11" height="11" rx="3.5" fill="#9be9a8" stroke="none"/><rect x="920" y="71" width="11" height="11" rx="3.5" fill="#40c463" stroke="none"/><rect x="920" y="84" width="11" height="11" rx="3.5" fill="#ebedf0" stroke="none"/><rect x="920" y="97" width="11" height="11" rx="3.5" fill="#40c463" stroke="none"/><rect x="920" y="110" width="11" height="11" rx="3.5" fill="#ebedf0" stroke="none"/><rect x="933" y="32" width="11" height="11" rx="3.5" fill="#ebedf0" stroke="none"/><rect x="933" y="45" width="11" height="11" rx="3.5" fill="#ebedf0" stroke="none"/><rect x="933" y="58" width="11" height="11" rx="3.5" fill="#ebedf0" stroke="none"/><rect x="933" y="71" width="11" height="11" rx="3.5" fill="#40c463" stroke="none"/><rect x="933" y="84" width="11" height="11" rx="3.5" fill="#ebedf0" stroke="none"/><rect x="933" y="97" width="11" height="11" rx="3.5" fill="#9be9a8" stroke="none"/><rect x="933" y="110" width="11" height="11" rx="3.5" fill="#9be9a8" stroke="none"/><rect x="946" y="32" width="11" height="11" rx="3.5" fill="#9be9a8" stroke="none"/><rect x="946" y="45" width="11" height="11" rx="3.5" fill="#9be9a8" stroke="none"/><rect x="946" y="58" width="11" height="11" rx="3.5" fill="#ebedf0" stroke="none"/><rect x="946" y="71" width="11" height="11" rx="3.5" fill="#ebedf0" stroke="none"/><rect x="946" y="84" width="11" height="11" rx="3.5" fill="#ebedf0" stroke="none"/><rect x="946" y="97" width="11" height="11" rx="3.5" fill="#9be9a8" stroke="none"/><rect x="946" y="110" width="11" height="11" rx="3.5" fill="#9be9a8" stroke="none"/><rect x="959" y="32" width="11" height="11" rx="3.5" fill="#ebedf0" stroke="none"/><rect x="959" y="45" width="11" height="11" rx="3.5" fill="#9be9a8" stroke="none"/><rect x="959" y="58" width="11" height="11" rx="3.5" fill="#9be9a8" stroke="none"/><rect x="959" y="71" width="11" height="11" rx="3.5" fill="#ebedf0" stroke="none"/><rect x="959" y="84" width="11" height="11" rx="3.5" fill="#40c463" stroke="none"/><rect x="959" y="97" width="11" height="11" rx="3.5" fill="#9be9a8" stroke="none"/><rect x="959" y="110" width="11" height="11" rx="3.5" fill="#ebedf0" stroke="none"/><rect x="972" y="32" width="11" height="11" rx="3.5" fill="#9be9a8" stroke="none"/><rect x="972" y="45" width="11" height="11" rx="3.5" fill="#9be9a8" stroke="none"/><rect x="972" y="58" width="11" height="11" rx="3.5" fill="#40c463" stroke="none"/><rect x="972" y="71" width="11" height="11" rx="3.5" fill="#40c463" stroke="none"/><rect x="972" y="84" width="11" height="11" rx="3.5" fill="#ebedf0" stroke="none"/><rect x="972" y="97" width="11" height="11" rx="3.5" fill="#40c463" stroke="none"/><rect x="972" y="110" width="11" height="11" rx="3.5" fill="#ebedf0" stroke="none"/><rect x="985" y="32" width="11" height="11" rx="3.5" fill="#9be9a8" stroke="none"/><rect x="985" y="45" width="11" height="11" rx="3.5" fill="#40c463" stroke="none"/><rect x="985" y="58" width="11" height="11" rx="3.5" fill="#ebedf0" stroke="none"/><rect x="985" y="71" width="11" height="11" rx="3.5" fill="#9be9a8" stroke="none"/><rect x="985" y="84" width="11" height="11" rx="3.5" fill="#ebedf0" stroke="none"/><rect x="985" y="97" width="11" height="11" rx="3.5" fill="#9be9a8" stroke="none"/><rect x="985" y="110" width="11" height="11" rx="3.5" fill="#40c463" stroke="none"/><rect x="998" y="32" width="11" height="11" rx="3.5" fill="#9be9a8" stroke="none"/><rect x="998" y="45" width="11" height="11" rx="3.5" fill="#40c463" stroke="none"/><rect x="998" y="58" width="11" height="11" rx="3.5" fill="#ebedf0" stroke="none"/><rect x="998" y="71" width="11" height="11" rx="3.5" fill="#9be9a8" stroke="none"/><rect x="998" y="84" width="11" height="11" rx="3.5" fill="#9be9a8" stroke="none"/><rect x="998" y="97" width="11" height="11" rx="3.5" fill="#9be9a8" stroke="none"/><rect x="998" y="110" width="11" height="11" rx="3.5" fill="#9be9a8" stroke="none"/><rect x="1011" y="32" width="11" height="11" rx="3.5" fill="#40c463" stroke="none"/><rect x="1011" y="45" width="11" height="11" rx="3.5" fill="#40c463" stroke="none"/><rect x="1011" y="58" width="11" height="11" rx="3.5" fill="#9be9a8" stroke="none"/><rect x="1011" y="71" width="11" height="11" rx="3.5" fill="#9be9a8" stroke="none"/><rect x="1011" y="84" width="11" height="11" rx="3.5" fill="#ebedf0" stroke="none"/><rect x="1011" y="97" width="11" height="11" rx="3.5" fill="#40c463" stroke="none"/><rect x="1011" y="110" width="11" height="11" rx="3.5" fill="#9be9a8" stroke="none"/><rect x="1024" y="32" width="11" height="11" rx="3.5" fill="#40c463" stroke="none"/><rect x="1024" y="45" width="11" height="11" rx="3.5" fill="#40c463" stroke="none"/><rect x="1024" y="58" width="11" height="11" rx="3.5" fill="#ebedf0" stroke="none"/><rect x="1024" y="71" width="11" height="11" rx="3.5" fill="#9be9a8" stroke="none"/><rect x="1024" y="84" width="11" height="11" rx="3.5" fill="#9be9a8" stroke="none"/><rect x="1024" y="97" width="11" height="11" rx="3.5" fill="#ebedf0" stroke="none"/><rect x="1024" y="110" width="11" height="11" rx="3.5" fill="#9be9a8" stroke="none"/><rect x="1037" y="32" width="11" height="11" rx="3.5" fill="#ebedf0" stroke="none"/><rect x="1037" y="45" width="11" height="11" rx="3.5" fill="#ebedf0" stroke="none"/><rect x="1037" y="58" width="11" height="11" rx="3.5" fill="#ebedf0" stroke="none"/><rect x="1037" y="71" width="11" height="11" rx="3.5" fill="#40c463" stroke="none"/><rect x="1037" y="84" width="11" height="11" rx="3.5" fill="#ebedf0" stroke="none"/><rect x="1037" y="97" width="11" height="11" rx="3.5" fill="#ebedf0" stroke="none"/><rect x="1037" y="110" width="11" height="11" rx="3.5" fill="#9be9a8" stroke="none"/><rect x="1050" y="32" width="11" height="11" rx="3.5" fill="#40c463" stroke="none"/><rect x="1050" y="45" width="11" height="11" rx="3.5" fill="#ebedf0" stroke="none"/><rect x="1050" y="58" width="11" height="11" rx="3.5" fill="#9be9a8" stroke="none"/><rect x="1050" y="71" width="11" height="11" rx="3.5" fill="#9be9a8" stroke="none"/><rect x="1050" y="84" width="11" height="11" rx="3.5" fill="#40c463" stroke="none"/><rect x="1050" y="97" width="11" height="11" rx="3.5" fill="#40c463" stroke="none"/><rect x="1050" y="110" width="11" height="11" rx="3.5" fill="#40c463" stroke="none"/><rect x="1063" y="32" width="11" height="11" rx="3.5" fill="#ebedf0" stroke="none"/><rect x="1063" y="45" width="11" height="11" rx="3.5" fill="#9be9a8" stroke="none"/><rect x="1063" y="58" width="11" height="11" rx="3.5" fill="#ebedf0" stroke="none"/><rect x="1063" y="71" width="11" height="11" rx="3.5" fill="#40c463" stroke="none"/><rect x="1063" y="84" width="11" height="11" rx="3.5" fill="#40c463" stroke="none"/><rect x="1063" y="97" width="11" height="11" rx="3.5" fill="#ebedf0" stroke="none"/><rect x="1063" y="110" width="11" height="11" rx="3.5" fill="#ebedf0" stroke="none"/><rect x="1076" y="32" width="11" height="11" rx="3.5" fill="#ebedf0" stroke="none"/><rect x="1076" y="45" width="11" height="11" rx="3.5" fill="#ebedf0" stroke="none"/><rect x="1076" y="58" width="11" height="11" rx="3.5" fill="#9be9a8" stroke="none"/><rect x="1076" y="71" width="11" height="11" rx="3.5" fill="#9be9a8" stroke="none"/><rect x="1076" y="84" width="11" height="11" rx="3.5" fill="#ebedf0" stroke="none"/><rect x="1076" y="97" width="11" height="11" rx="3.5" fill="#ebedf0" stroke="none"/><rect x="1076" y="110" width="11" height="11" rx="3.5" fill="#9be9a8" stroke="none"/><rect x="1089" y="32" width="11" height="11" rx="3.5" fill="#9be9a8" stroke="none"/><rect x="1089" y="45" width="11" height="11" rx="3.5" fill="#9be9a8" stroke="none"/><rect x="1089" y="58" width="11" height="11" rx="3.5" fill="#40c463" stroke="none"/><rect x="1089" y="71" width="11" height="11" rx="3.5" fill="#9be9a8" stroke="none"/><rect x="1089" y="84" width="11" height="11" rx="3.5" fill="#9be9a8" stroke="none"/><rect x="1089" y="97" width="11" height="11" rx="3.5" fill="#9be9a8" stroke="none"/><rect x="1089" y="110" width="11" height="11" rx="3.5" fill="#9be9a8" stroke="none"/><rect x="1102" y="32" width="11" height="11" rx="3.5" fill="#ebedf0" stroke="none"/><rect x="1102" y="45" width="11" height="11" rx="3.5" fill="#40c463" stroke="none"/><rect x="1102" y="58" width="11" height="11" rx="3.5" fill="#40c463" stroke="none"/><rect x="1102" y="71" width="11" height="11" rx="3.5" fill="#40c463" stroke="none"/><rect x="1102" y="84" width="11" height="11" rx="3.5" fill="#40c463" stroke="none"/><rect x="1102" y="97" width="11" height="11" rx="3.5" fill="#9be9a8" stroke="none"/><rect x="1102" y="110" width="11" height="11" rx="3.5" fill="#9be9a8" stroke="none"/><rect x="1115" y="32" width="11" height="11" rx="3.5" fill="#ebedf0" stroke="none"/><rect x="1115" y="45" width="11" height="11" rx="3.5" fill="#9be9a8" stroke="none"/><rect x="1115" y="58" width="11" height="11" rx="3.5" fill="#ebedf0" stroke="none"/><rect x="1115" y="71" width="11" height="11" rx="3.5" fill="#ebedf0" stroke="none"/><rect x="1115" y="84" width="11" height="11" rx="3.5" fill="#ebedf0" stroke="none"/><rect x="1115" y="97" width="11" height="11" rx="3.5" fill="#ebedf0" stroke="none"/><rect x="1115" y="110" width="11" height="11" rx="3.5" fill="#ebedf0" stroke="none"/><rect x="1128" y="32" width="11" height="11" rx="3.5" fill="#ebedf0" stroke="none"/><rect x="1128" y="45" width="11" height="11" rx="3.5" fill="#ebedf0" stroke="none"/><rect x="1128" y="58" width="11" height="11" rx="3.5" fill="#ebedf0" stroke="none"/><rect x="1128" y="71" width="11" height="11" rx="3.5" fill="#ebedf0" stroke="none"/><rect x="1128" y="84" width="11" height="11" rx="3.5" fill="#ebedf0" stroke="none"/><rect x="1128" y="97" width="11" height="11" rx="3.5" fill="#ebedf0" stroke="none"/><rect x="1128" y="110" width="11" height="11" rx="3.5" fill="#40c463" stroke="none"/><rect x="1141" y="32" width="11" height="11" rx="3.5" fill="#9be9a8" stroke="none"/><rect x="1141" y="45" width="11" height="11" rx="3.5" fill="#ebedf0" stroke="none"/><rect x="1141" y="58" width="11" height="11" rx="3.5" fill="#ebedf0" stroke="none"/><rect x="1141" y="71" width="11" height="11" rx="3.5" fill="#ebedf0" stroke="none"/>
  
  <!-- Legend -->
  <text x="920" y="132" font-family="Segoe UI, Arial, sans-serif" font-size="9" fill="#59636e">Less</text>
  <text x="1340" y="132" font-family="Segoe UI, Arial, sans-serif" font-size="9" fill="#59636e">More</text>

  <!-- Stats cards -->
  
  <rect x="280.0" y="32" width="286.6666666666667" height="110" rx="10" fill="#f6f8fa" stroke="none"/>
  <g transform="translate(293.0,78.0) scale(1.0000)" color="#0969da"><circle cx="6.2" cy="5.2" r="2.4" fill="none" stroke="currentColor" stroke-width="1.2"/><path d="M1.8 14c.4-2.6 2.2-4.2 4.4-4.2s4 1.6 4.4 4.2" fill="none" stroke="currentColor" stroke-width="1.2"/><circle cx="12.2" cy="6" r="2" fill="none" stroke="currentColor" stroke-width="1.1" opacity="0.7"/><path d="M10.6 9.3c1.7.2 3 1.6 3.4 3.9" fill="none" stroke="currentColor" stroke-width="1.1" opacity="0.7"/></g>
  <text x="320.0" y="81.0" font-family="Segoe UI, Arial, sans-serif" font-size="12" fill="#59636e">Followers</text>
  <text x="320.0" y="103.0" font-family="Segoe UI, Arial, sans-serif" font-size="21" font-weight="700" fill="#1f2328">42</text>

  <rect x="580.6666666666667" y="32" width="286.6666666666667" height="110" rx="10" fill="#f6f8fa" stroke="none"/>
  <g transform="translate(593.6666666666667,78.0) scale(1.0000)" color="#0969da"><path d="M3 2.5A1.5 1.5 0 0 1 4.5 1h7A1.5 1.5 0 0 1 13 2.5v12.086a.5.5 0 0 1-.79.407L9 12.5l-3.21 2.493A.5.5 0 0 1 5 14.586V2.5Z" fill="none" stroke="currentColor" stroke-width="1.3"/></g>
  <text x="620.6666666666667" y="81.0" font-family="Segoe UI, Arial, sans-serif" font-size="12" fill="#59636e">Public Repos</text>
  <text x="620.6666666666667" y="103.0" font-family="Segoe UI, Arial, sans-serif" font-size="21" font-weight="700" fill="#1f2328">15</text>

  <rect x="881.3333333333334" y="32" width="286.6666666666667" height="110" rx="10" fill="#f6f8fa" stroke="none"/>
  <g transform="translate(894.3333333333334,78.0) scale(1.0000)" color="#0969da"><rect x="4" y="8" width="10" height="7.5" rx="1.5" fill="none" stroke="currentColor" stroke-width="1.3"/><path d="M6 8V5.6a3 3 0 0 1 6 0V8" fill="none" stroke="currentColor" stroke-width="1.3"/><circle cx="9" cy="11.5" r="0.9" fill="currentColor"/></g>
  <text x="921.3333333333334" y="81.0" font-family="Segoe UI, Arial, sans-serif" font-size="12" fill="#59636e">Private Repos</text>
  <text x="921.3333333333334" y="103.0" font-family="Segoe UI, Arial, sans-serif" font-size="21" font-weight="700" fill="#1f2328">4</text>

  <rect x="280.0" y="156" width="286.6666666666667" height="110" rx="10" fill="#f6f8fa" stroke="none"/>
  <g transform="translate(293.0,202.0) scale(1.0000)" color="#0969da"><path d="M9 1.5l2.12 4.3 4.75.69-3.44 3.35.81 4.73L9 12.35l-4.24 2.22.81-4.73L2.13 6.49l4.75-.69L9 1.5z" fill="none" stroke="currentColor" stroke-width="1.2" stroke-linejoin="round"/></g>
  <text x="320.0" y="205.0" font-family="Segoe UI, Arial, sans-serif" font-size="12" fill="#59636e">Stars</text>
  <text x="320.0" y="227.0" font-family="Segoe UI, Arial, sans-serif" font-size="21" font-weight="700" fill="#1f2328">3</text>

  <rect x="580.6666666666667" y="156" width="286.6666666666667" height="110" rx="10" fill="#f6f8fa" stroke="none"/>
  <g transform="translate(593.6666666666667,202.0) scale(1.0000)" color="#0969da"><circle cx="4.5" cy="4" r="1.6" fill="none" stroke="currentColor" stroke-width="1.2"/><circle cx="13.5" cy="4" r="1.6" fill="none" stroke="currentColor" stroke-width="1.2"/><circle cx="9" cy="14" r="1.6" fill="none" stroke="currentColor" stroke-width="1.2"/><path d="M4.5 5.6V8c0 1.4 1.2 2 2.2 2.4M13.5 5.6V8c0 1.4-1.2 2-2.2 2.4M9 10.4V12.4" fill="none" stroke="currentColor" stroke-width="1.2"/></g>
  <text x="620.6666666666667" y="205.0" font-family="Segoe UI, Arial, sans-serif" font-size="12" fill="#59636e">Forks</text>
  <text x="620.6666666666667" y="227.0" font-family="Segoe UI, Arial, sans-serif" font-size="21" font-weight="700" fill="#1f2328">0</text>

  <rect x="881.3333333333334" y="156" width="286.6666666666667" height="110" rx="10" fill="#f6f8fa" stroke="none"/>
  <g transform="translate(894.3333333333334,202.0) scale(1.0000)" color="#0969da"><path d="M5.5 4L2 9l3.5 5M12.5 4L16 9l-3.5 5M10 3l-2 12" fill="none" stroke="currentColor" stroke-width="1.2" stroke-linecap="round" stroke-linejoin="round"/></g>
  <text x="921.3333333333334" y="205.0" font-family="Segoe UI, Arial, sans-serif" font-size="12" fill="#59636e">Gists</text>
  <text x="921.3333333333334" y="227.0" font-family="Segoe UI, Arial, sans-serif" font-size="21" font-weight="700" fill="#1f2328">1</text>


  <!-- Activity Overview section -->
  <rect x="32" y="360" width="560" height="320" rx="12" fill="#ffffff" stroke="#d0d7de" stroke-width="1"/>
  <g transform="translate(59.0,373.0) scale(1.0000)" color="#0969da"><circle cx="9" cy="9" r="2.4" fill="none" stroke="currentColor" stroke-width="1.3"/><path d="M1.5 9h4.1M12.4 9h4.1" fill="none" stroke="currentColor" stroke-width="1.3"/></g>
  <text x="88" y="390" font-family="Segoe UI, Arial, sans-serif" font-size="16" font-weight="700" fill="#1f2328">Activity Overview</text>
  
  <rect x="48.0" y="404" width="246.0" height="80" rx="8" fill="#ffffff" stroke="none"/>
  <g transform="translate(62.0,436.0) scale(0.8889)" color="#0969da"><circle cx="9" cy="9" r="2.4" fill="none" stroke="currentColor" stroke-width="1.3"/><path d="M1.5 9h4.1M12.4 9h4.1" fill="none" stroke="currentColor" stroke-width="1.3"/></g>
  <text x="86.0" y="436.0" font-family="Segoe UI, Arial, sans-serif" font-size="11" fill="#59636e">Commits</text>
  <text x="86.0" y="458.0" font-family="Segoe UI, Arial, sans-serif" font-size="18" font-weight="700" fill="#1f2328">640</text>

  <rect x="308.0" y="404" width="246.0" height="80" rx="8" fill="#ffffff" stroke="none"/>
  <g transform="translate(322.0,436.0) scale(0.8889)" color="#0969da"><circle cx="5" cy="4" r="1.7" fill="none" stroke="currentColor" stroke-width="1.2"/><circle cx="5" cy="14" r="1.7" fill="none" stroke="currentColor" stroke-width="1.2"/><circle cx="13" cy="6.5" r="1.7" fill="none" stroke="currentColor" stroke-width="1.2"/><path d="M5 5.7V12.3M5 7c3 0 4-1 6-1" fill="none" stroke="currentColor" stroke-width="1.2"/></g>
  <text x="346.0" y="436.0" font-family="Segoe UI, Arial, sans-serif" font-size="11" fill="#59636e">Pull Requests</text>
  <text x="346.0" y="458.0" font-family="Segoe UI, Arial, sans-serif" font-size="18" font-weight="700" fill="#1f2328">58</text>

  <rect x="48.0" y="498" width="246.0" height="80" rx="8" fill="#ffffff" stroke="none"/>
  <g transform="translate(62.0,530.0) scale(0.8889)" color="#0969da"><circle cx="9" cy="9" r="6.3" fill="none" stroke="currentColor" stroke-width="1.3"/><path d="M9 5.6v4" stroke="currentColor" stroke-width="1.3" stroke-linecap="round"/><circle cx="9" cy="12.1" r="0.75" fill="currentColor"/></g>
  <text x="86.0" y="530.0" font-family="Segoe UI, Arial, sans-serif" font-size="11" fill="#59636e">Issues</text>
  <text x="86.0" y="552.0" font-family="Segoe UI, Arial, sans-serif" font-size="18" font-weight="700" fill="#1f2328">34</text>

  <rect x="308.0" y="498" width="246.0" height="80" rx="8" fill="#ffffff" stroke="none"/>
  <g transform="translate(322.0,530.0) scale(0.8889)" color="#0969da"><path d="M3 9.5l3.6 3.6L15 4.6" fill="none" stroke="currentColor" stroke-width="1.6" stroke-linecap="round" stroke-linejoin="round"/></g>
  <text x="346.0" y="530.0" font-family="Segoe UI, Arial, sans-serif" font-size="11" fill="#59636e">Code Reviews</text>
  <text x="346.0" y="552.0" font-family="Segoe UI, Arial, sans-serif" font-size="18" font-weight="700" fill="#1f2328">12</text>

  <rect x="48.0" y="592" width="246.0" height="80" rx="8" fill="#ffffff" stroke="none"/>
  <g transform="translate(62.0,624.0) scale(0.8889)" color="#0969da"><path d="M9 1.8c.4 2 2 2.7 2 4.9 0 1-.5 1.7-1.1 2.1.9-.2 1.9-1 1.9-2.5 1.6 1.6 2.4 3.3 2.4 5 0 3-2.3 5.2-5.2 5.2S3.8 14.3 3.8 11.3c0-2.6 1.4-4.2 2.7-5.7-.1.9.2 1.7.9 2.1-.3-2.8 1-4.4 1.6-5.9z" fill="none" stroke="currentColor" stroke-width="1.2" stroke-linejoin="round"/></g>
  <text x="86.0" y="624.0" font-family="Segoe UI, Arial, sans-serif" font-size="11" fill="#59636e">Current Streak</text>
  <text x="86.0" y="646.0" font-family="Segoe UI, Arial, sans-serif" font-size="18" font-weight="700" fill="#1f2328">6</text>

  <rect x="308.0" y="592" width="246.0" height="80" rx="8" fill="#ffffff" stroke="none"/>
  <g transform="translate(322.0,624.0) scale(0.8889)" color="#0969da"><path d="M6 3h6v4a3 3 0 0 1-6 0V3z" fill="none" stroke="currentColor" stroke-width="1.2"/><path d="M6 4H4a2 2 0 0 0 2 3M12 4h2a2 2 0 0 1-2 3" fill="none" stroke="currentColor" stroke-width="1.1"/><path d="M9 10v2M6.5 15h5M7.2 12.5h3.6l.4 2.5H6.8z" fill="none" stroke="currentColor" stroke-width="1.1"/></g>
  <text x="346.0" y="624.0" font-family="Segoe UI, Arial, sans-serif" font-size="11" fill="#59636e">Longest Streak</text>
  <text x="346.0" y="646.0" font-family="Segoe UI, Arial, sans-serif" font-size="18" font-weight="700" fill="#1f2328">21</text>


  <!-- Languages section -->
  <rect x="620" y="360" width="548" height="320" rx="12" fill="#ffffff" stroke="#d0d7de" stroke-width="1"/>
  <g transform="translate(647.0,373.0) scale(1.0000)" color="#0969da"><circle cx="9" cy="9" r="2.4" fill="none" stroke="currentColor" stroke-width="1.3"/><path d="M1.5 9h4.1M12.4 9h4.1" fill="none" stroke="currentColor" stroke-width="1.3"/></g>
  <text x="676" y="390" font-family="Segoe UI, Arial, sans-serif" font-size="16" font-weight="700" fill="#1f2328">Languages</text>
  
  
  <rect x="652" y="410" width="484" height="16" rx="6" fill="#f6f8fa" stroke="none"/>
  <clipPath id="langClip"><rect x="652" y="410" width="484" height="16" rx="6"/></clipPath>
  <g clip-path="url(#langClip)"><rect x="652.0" y="410" width="257.7" height="16" fill="#3572A5"/><rect x="909.7" y="410" width="128.9" height="16" fill="#f1e05a"/><rect x="1038.6" y="410" width="56.6" height="16" fill="#e34c26"/><rect x="1095.1" y="410" width="28.3" height="16" fill="#563d7c"/><rect x="1123.4" y="410" width="12.6" height="16" fill="#89e051"/></g>

  
  <circle cx="657" cy="426" r="5" fill="#3572A5"/>
  <text x="668" y="430" font-family="Segoe UI, Arial, sans-serif" font-size="11" fill="#1f2328">Python</text>
  <text x="668" y="445" font-family="Segoe UI, Arial, sans-serif" font-size="10" fill="#59636e">53.2% 82,000 bytes</text>

  <circle cx="807" cy="426" r="5" fill="#f1e05a"/>
  <text x="818" y="430" font-family="Segoe UI, Arial, sans-serif" font-size="11" fill="#1f2328">JavaScript</text>
  <text x="818" y="445" font-family="Segoe UI, Arial, sans-serif" font-size="10" fill="#59636e">26.6% 41,000 bytes</text>

  <circle cx="957" cy="426" r="5" fill="#e34c26"/>
  <text x="968" y="430" font-family="Segoe UI, Arial, sans-serif" font-size="11" fill="#1f2328">HTML</text>
  <text x="968" y="445" font-family="Segoe UI, Arial, sans-serif" font-size="10" fill="#59636e">11.7% 18,000 bytes</text>

  <circle cx="1107" cy="426" r="5" fill="#563d7c"/>
  <text x="1118" y="430" font-family="Segoe UI, Arial, sans-serif" font-size="11" fill="#1f2328">CSS</text>
  <text x="1118" y="445" font-family="Segoe UI, Arial, sans-serif" font-size="10" fill="#59636e">5.8% 9,000 bytes</text>

  <circle cx="1257" cy="426" r="5" fill="#89e051"/>
  <text x="1268" y="430" font-family="Segoe UI, Arial, sans-serif" font-size="11" fill="#1f2328">Shell</text>
  <text x="1268" y="445" font-family="Segoe UI, Arial, sans-serif" font-size="10" fill="#59636e">2.6% 4,000 bytes</text>

</svg>